<mxfile host="app.diagrams.net" modified="2022-12-07T04:32:42.950Z" agent="5.0 (Macintosh; Intel Mac OS X 10_15_7) AppleWebKit/605.1.15 (KHTML, like Gecko) Version/15.5 Safari/605.1.15" version="20.6.0" etag="zNJqUpWIsZEtdC-uOejq" type="github">
  <diagram id="IU0A7Wy2BxLqMuLYRI0g" name="Page-1">
    <mxGraphModel dx="977" dy="1210" grid="1" gridSize="10" guides="1" tooltips="1" connect="1" arrows="1" fold="1" page="1" pageScale="1" pageWidth="850" pageHeight="1100" math="0" shadow="0">
      <root>
        <mxCell id="0" />
        <mxCell id="1" parent="0" />
        <mxCell id="HxZMuwQtgUmfp3cJDNCK-9" value="" style="ellipse;whiteSpace=wrap;html=1;aspect=fixed;" vertex="1" parent="1">
          <mxGeometry x="360" y="30" width="60" height="60" as="geometry" />
        </mxCell>
        <mxCell id="HxZMuwQtgUmfp3cJDNCK-10" value="L" style="ellipse;whiteSpace=wrap;html=1;aspect=fixed;" vertex="1" parent="1">
          <mxGeometry x="170" y="150" width="50" height="50" as="geometry" />
        </mxCell>
        <mxCell id="HxZMuwQtgUmfp3cJDNCK-12" value="T" style="ellipse;whiteSpace=wrap;html=1;aspect=fixed;" vertex="1" parent="1">
          <mxGeometry x="70" y="410" width="50" height="50" as="geometry" />
        </mxCell>
        <mxCell id="HxZMuwQtgUmfp3cJDNCK-13" value="U" style="ellipse;whiteSpace=wrap;html=1;aspect=fixed;" vertex="1" parent="1">
          <mxGeometry x="70" y="620" width="50" height="50" as="geometry" />
        </mxCell>
        <mxCell id="HxZMuwQtgUmfp3cJDNCK-14" value="T" style="ellipse;whiteSpace=wrap;html=1;aspect=fixed;" vertex="1" parent="1">
          <mxGeometry x="120" y="520" width="50" height="50" as="geometry" />
        </mxCell>
        <mxCell id="HxZMuwQtgUmfp3cJDNCK-15" value="C" style="ellipse;whiteSpace=wrap;html=1;aspect=fixed;" vertex="1" parent="1">
          <mxGeometry x="70" y="730" width="50" height="50" as="geometry" />
        </mxCell>
        <mxCell id="HxZMuwQtgUmfp3cJDNCK-16" value="E" style="ellipse;whiteSpace=wrap;html=1;aspect=fixed;" vertex="1" parent="1">
          <mxGeometry x="70" y="850" width="50" height="50" as="geometry" />
        </mxCell>
        <mxCell id="HxZMuwQtgUmfp3cJDNCK-17" value="" style="endArrow=none;html=1;rounded=0;exitX=1;exitY=0;exitDx=0;exitDy=0;entryX=0.5;entryY=1;entryDx=0;entryDy=0;" edge="1" parent="1" source="HxZMuwQtgUmfp3cJDNCK-10" target="HxZMuwQtgUmfp3cJDNCK-9">
          <mxGeometry width="50" height="50" relative="1" as="geometry">
            <mxPoint x="240" y="190" as="sourcePoint" />
            <mxPoint x="290" y="140" as="targetPoint" />
          </mxGeometry>
        </mxCell>
        <mxCell id="HxZMuwQtgUmfp3cJDNCK-20" value="" style="endArrow=none;html=1;rounded=0;exitX=0.5;exitY=1;exitDx=0;exitDy=0;entryX=0.5;entryY=0;entryDx=0;entryDy=0;" edge="1" parent="1" source="HxZMuwQtgUmfp3cJDNCK-12" target="HxZMuwQtgUmfp3cJDNCK-14">
          <mxGeometry width="50" height="50" relative="1" as="geometry">
            <mxPoint x="460" y="460" as="sourcePoint" />
            <mxPoint x="510" y="410" as="targetPoint" />
          </mxGeometry>
        </mxCell>
        <mxCell id="HxZMuwQtgUmfp3cJDNCK-21" value="" style="endArrow=none;html=1;rounded=0;entryX=0.5;entryY=1;entryDx=0;entryDy=0;exitX=0.5;exitY=0;exitDx=0;exitDy=0;" edge="1" parent="1" source="HxZMuwQtgUmfp3cJDNCK-13" target="HxZMuwQtgUmfp3cJDNCK-14">
          <mxGeometry width="50" height="50" relative="1" as="geometry">
            <mxPoint x="460" y="460" as="sourcePoint" />
            <mxPoint x="510" y="410" as="targetPoint" />
          </mxGeometry>
        </mxCell>
        <mxCell id="HxZMuwQtgUmfp3cJDNCK-22" value="" style="endArrow=none;html=1;rounded=0;entryX=0.5;entryY=1;entryDx=0;entryDy=0;exitX=0.5;exitY=0;exitDx=0;exitDy=0;" edge="1" parent="1" source="HxZMuwQtgUmfp3cJDNCK-15" target="HxZMuwQtgUmfp3cJDNCK-13">
          <mxGeometry width="50" height="50" relative="1" as="geometry">
            <mxPoint x="460" y="460" as="sourcePoint" />
            <mxPoint x="510" y="410" as="targetPoint" />
          </mxGeometry>
        </mxCell>
        <mxCell id="HxZMuwQtgUmfp3cJDNCK-23" value="" style="endArrow=none;html=1;rounded=0;entryX=0.5;entryY=1;entryDx=0;entryDy=0;exitX=0.5;exitY=0;exitDx=0;exitDy=0;" edge="1" parent="1" source="HxZMuwQtgUmfp3cJDNCK-16" target="HxZMuwQtgUmfp3cJDNCK-15">
          <mxGeometry width="50" height="50" relative="1" as="geometry">
            <mxPoint x="460" y="780" as="sourcePoint" />
            <mxPoint x="510" y="730" as="targetPoint" />
          </mxGeometry>
        </mxCell>
        <mxCell id="HxZMuwQtgUmfp3cJDNCK-24" value="O" style="ellipse;whiteSpace=wrap;html=1;aspect=fixed;" vertex="1" parent="1">
          <mxGeometry x="250" y="730" width="50" height="50" as="geometry" />
        </mxCell>
        <mxCell id="HxZMuwQtgUmfp3cJDNCK-25" value="N" style="ellipse;whiteSpace=wrap;html=1;aspect=fixed;" vertex="1" parent="1">
          <mxGeometry x="250" y="850" width="50" height="50" as="geometry" />
        </mxCell>
        <mxCell id="HxZMuwQtgUmfp3cJDNCK-26" value="R" style="ellipse;whiteSpace=wrap;html=1;aspect=fixed;" vertex="1" parent="1">
          <mxGeometry x="410" y="615" width="50" height="50" as="geometry" />
        </mxCell>
        <mxCell id="HxZMuwQtgUmfp3cJDNCK-27" value="$" style="ellipse;whiteSpace=wrap;html=1;aspect=fixed;" vertex="1" parent="1">
          <mxGeometry x="250" y="970" width="50" height="50" as="geometry" />
        </mxCell>
        <mxCell id="HxZMuwQtgUmfp3cJDNCK-28" value="$" style="ellipse;whiteSpace=wrap;html=1;aspect=fixed;" vertex="1" parent="1">
          <mxGeometry x="410" y="725" width="50" height="50" as="geometry" />
        </mxCell>
        <mxCell id="HxZMuwQtgUmfp3cJDNCK-30" value="" style="endArrow=none;html=1;rounded=0;entryX=0.5;entryY=1;entryDx=0;entryDy=0;exitX=0.5;exitY=0;exitDx=0;exitDy=0;" edge="1" parent="1" source="HxZMuwQtgUmfp3cJDNCK-25" target="HxZMuwQtgUmfp3cJDNCK-24">
          <mxGeometry width="50" height="50" relative="1" as="geometry">
            <mxPoint x="345" y="710" as="sourcePoint" />
            <mxPoint x="395" y="660" as="targetPoint" />
          </mxGeometry>
        </mxCell>
        <mxCell id="HxZMuwQtgUmfp3cJDNCK-31" value="" style="endArrow=none;html=1;rounded=0;exitX=0.5;exitY=1;exitDx=0;exitDy=0;entryX=0.5;entryY=0;entryDx=0;entryDy=0;" edge="1" parent="1" source="HxZMuwQtgUmfp3cJDNCK-25" target="HxZMuwQtgUmfp3cJDNCK-27">
          <mxGeometry width="50" height="50" relative="1" as="geometry">
            <mxPoint x="765" y="730" as="sourcePoint" />
            <mxPoint x="815" y="680" as="targetPoint" />
          </mxGeometry>
        </mxCell>
        <mxCell id="HxZMuwQtgUmfp3cJDNCK-33" value="" style="endArrow=none;html=1;rounded=0;entryX=0.5;entryY=1;entryDx=0;entryDy=0;exitX=0.5;exitY=0;exitDx=0;exitDy=0;" edge="1" parent="1" source="HxZMuwQtgUmfp3cJDNCK-28" target="HxZMuwQtgUmfp3cJDNCK-26">
          <mxGeometry width="50" height="50" relative="1" as="geometry">
            <mxPoint x="715" y="725" as="sourcePoint" />
            <mxPoint x="765" y="675" as="targetPoint" />
          </mxGeometry>
        </mxCell>
        <mxCell id="HxZMuwQtgUmfp3cJDNCK-34" value="" style="endArrow=none;html=1;rounded=0;entryX=0.5;entryY=1;entryDx=0;entryDy=0;exitX=0.5;exitY=0;exitDx=0;exitDy=0;" edge="1" parent="1" source="HxZMuwQtgUmfp3cJDNCK-26" target="HxZMuwQtgUmfp3cJDNCK-56">
          <mxGeometry width="50" height="50" relative="1" as="geometry">
            <mxPoint x="715" y="1045" as="sourcePoint" />
            <mxPoint x="765" y="995" as="targetPoint" />
          </mxGeometry>
        </mxCell>
        <mxCell id="HxZMuwQtgUmfp3cJDNCK-37" value="E" style="ellipse;whiteSpace=wrap;html=1;aspect=fixed;" vertex="1" parent="1">
          <mxGeometry x="170" y="300" width="50" height="50" as="geometry" />
        </mxCell>
        <mxCell id="HxZMuwQtgUmfp3cJDNCK-38" value="R" style="ellipse;whiteSpace=wrap;html=1;aspect=fixed;" vertex="1" parent="1">
          <mxGeometry x="150" y="730" width="50" height="50" as="geometry" />
        </mxCell>
        <mxCell id="HxZMuwQtgUmfp3cJDNCK-39" value="E" style="ellipse;whiteSpace=wrap;html=1;aspect=fixed;" vertex="1" parent="1">
          <mxGeometry x="150" y="620" width="50" height="50" as="geometry" />
        </mxCell>
        <mxCell id="HxZMuwQtgUmfp3cJDNCK-40" value="$" style="ellipse;whiteSpace=wrap;html=1;aspect=fixed;" vertex="1" parent="1">
          <mxGeometry x="150" y="850" width="50" height="50" as="geometry" />
        </mxCell>
        <mxCell id="HxZMuwQtgUmfp3cJDNCK-41" value="" style="endArrow=none;html=1;rounded=0;entryX=0.5;entryY=1;entryDx=0;entryDy=0;exitX=0.5;exitY=0;exitDx=0;exitDy=0;" edge="1" parent="1" source="HxZMuwQtgUmfp3cJDNCK-37" target="HxZMuwQtgUmfp3cJDNCK-10">
          <mxGeometry width="50" height="50" relative="1" as="geometry">
            <mxPoint x="120" y="440" as="sourcePoint" />
            <mxPoint x="225" y="340" as="targetPoint" />
          </mxGeometry>
        </mxCell>
        <mxCell id="HxZMuwQtgUmfp3cJDNCK-42" value="" style="endArrow=none;html=1;rounded=0;exitX=0.5;exitY=1;exitDx=0;exitDy=0;entryX=0.5;entryY=0;entryDx=0;entryDy=0;" edge="1" parent="1" source="HxZMuwQtgUmfp3cJDNCK-14" target="HxZMuwQtgUmfp3cJDNCK-39">
          <mxGeometry width="50" height="50" relative="1" as="geometry">
            <mxPoint x="540" y="350" as="sourcePoint" />
            <mxPoint x="590" y="300" as="targetPoint" />
          </mxGeometry>
        </mxCell>
        <mxCell id="HxZMuwQtgUmfp3cJDNCK-43" value="" style="endArrow=none;html=1;rounded=0;entryX=0.5;entryY=1;entryDx=0;entryDy=0;exitX=0.5;exitY=0;exitDx=0;exitDy=0;" edge="1" parent="1" source="HxZMuwQtgUmfp3cJDNCK-38" target="HxZMuwQtgUmfp3cJDNCK-39">
          <mxGeometry width="50" height="50" relative="1" as="geometry">
            <mxPoint x="540" y="560" as="sourcePoint" />
            <mxPoint x="590" y="510" as="targetPoint" />
          </mxGeometry>
        </mxCell>
        <mxCell id="HxZMuwQtgUmfp3cJDNCK-44" value="" style="endArrow=none;html=1;rounded=0;entryX=0.5;entryY=1;entryDx=0;entryDy=0;exitX=0.5;exitY=0;exitDx=0;exitDy=0;" edge="1" parent="1" source="HxZMuwQtgUmfp3cJDNCK-40" target="HxZMuwQtgUmfp3cJDNCK-38">
          <mxGeometry width="50" height="50" relative="1" as="geometry">
            <mxPoint x="540" y="560" as="sourcePoint" />
            <mxPoint x="590" y="510" as="targetPoint" />
          </mxGeometry>
        </mxCell>
        <mxCell id="HxZMuwQtgUmfp3cJDNCK-46" value="I" style="ellipse;whiteSpace=wrap;html=1;aspect=fixed;" vertex="1" parent="1">
          <mxGeometry x="250" y="510" width="50" height="50" as="geometry" />
        </mxCell>
        <mxCell id="HxZMuwQtgUmfp3cJDNCK-47" value="X" style="ellipse;whiteSpace=wrap;html=1;aspect=fixed;" vertex="1" parent="1">
          <mxGeometry x="250" y="410" width="50" height="50" as="geometry" />
        </mxCell>
        <mxCell id="HxZMuwQtgUmfp3cJDNCK-48" value="C" style="ellipse;whiteSpace=wrap;html=1;aspect=fixed;" vertex="1" parent="1">
          <mxGeometry x="250" y="620" width="50" height="50" as="geometry" />
        </mxCell>
        <mxCell id="HxZMuwQtgUmfp3cJDNCK-49" value="" style="endArrow=none;html=1;rounded=0;entryX=0.5;entryY=1;entryDx=0;entryDy=0;exitX=0.5;exitY=0;exitDx=0;exitDy=0;" edge="1" parent="1" source="HxZMuwQtgUmfp3cJDNCK-46" target="HxZMuwQtgUmfp3cJDNCK-47">
          <mxGeometry width="50" height="50" relative="1" as="geometry">
            <mxPoint x="640" y="360" as="sourcePoint" />
            <mxPoint x="690" y="310" as="targetPoint" />
          </mxGeometry>
        </mxCell>
        <mxCell id="HxZMuwQtgUmfp3cJDNCK-50" value="" style="endArrow=none;html=1;rounded=0;entryX=0.5;entryY=1;entryDx=0;entryDy=0;exitX=0.5;exitY=0;exitDx=0;exitDy=0;" edge="1" parent="1" source="HxZMuwQtgUmfp3cJDNCK-48" target="HxZMuwQtgUmfp3cJDNCK-46">
          <mxGeometry width="50" height="50" relative="1" as="geometry">
            <mxPoint x="640" y="360" as="sourcePoint" />
            <mxPoint x="690" y="310" as="targetPoint" />
          </mxGeometry>
        </mxCell>
        <mxCell id="HxZMuwQtgUmfp3cJDNCK-51" value="" style="endArrow=none;html=1;rounded=0;entryX=0.5;entryY=1;entryDx=0;entryDy=0;exitX=0.5;exitY=0;exitDx=0;exitDy=0;" edge="1" parent="1" source="HxZMuwQtgUmfp3cJDNCK-47" target="HxZMuwQtgUmfp3cJDNCK-37">
          <mxGeometry width="50" height="50" relative="1" as="geometry">
            <mxPoint x="300" y="420" as="sourcePoint" />
            <mxPoint x="350" y="370" as="targetPoint" />
          </mxGeometry>
        </mxCell>
        <mxCell id="HxZMuwQtgUmfp3cJDNCK-52" value="R" style="ellipse;whiteSpace=wrap;html=1;aspect=fixed;" vertex="1" parent="1">
          <mxGeometry x="570" y="150" width="50" height="50" as="geometry" />
        </mxCell>
        <mxCell id="HxZMuwQtgUmfp3cJDNCK-53" value="E" style="ellipse;whiteSpace=wrap;html=1;aspect=fixed;" vertex="1" parent="1">
          <mxGeometry x="470" y="310" width="50" height="50" as="geometry" />
        </mxCell>
        <mxCell id="HxZMuwQtgUmfp3cJDNCK-54" value="C" style="ellipse;whiteSpace=wrap;html=1;aspect=fixed;" vertex="1" parent="1">
          <mxGeometry x="410" y="415" width="50" height="50" as="geometry" />
        </mxCell>
        <mxCell id="HxZMuwQtgUmfp3cJDNCK-56" value="U" style="ellipse;whiteSpace=wrap;html=1;aspect=fixed;" vertex="1" parent="1">
          <mxGeometry x="410" y="525" width="50" height="50" as="geometry" />
        </mxCell>
        <mxCell id="HxZMuwQtgUmfp3cJDNCK-59" value="" style="endArrow=none;html=1;rounded=0;exitX=0.5;exitY=0;exitDx=0;exitDy=0;entryX=0.5;entryY=1;entryDx=0;entryDy=0;" edge="1" parent="1" source="HxZMuwQtgUmfp3cJDNCK-53" target="HxZMuwQtgUmfp3cJDNCK-52">
          <mxGeometry width="50" height="50" relative="1" as="geometry">
            <mxPoint x="528.2842712474667" y="291.7157287525333" as="sourcePoint" />
            <mxPoint x="580" y="220" as="targetPoint" />
          </mxGeometry>
        </mxCell>
        <mxCell id="HxZMuwQtgUmfp3cJDNCK-60" value="" style="endArrow=none;html=1;rounded=0;entryX=0.5;entryY=1;entryDx=0;entryDy=0;exitX=0.5;exitY=0;exitDx=0;exitDy=0;" edge="1" parent="1" source="HxZMuwQtgUmfp3cJDNCK-54" target="HxZMuwQtgUmfp3cJDNCK-53">
          <mxGeometry width="50" height="50" relative="1" as="geometry">
            <mxPoint x="430" y="450" as="sourcePoint" />
            <mxPoint x="480" y="400" as="targetPoint" />
          </mxGeometry>
        </mxCell>
        <mxCell id="HxZMuwQtgUmfp3cJDNCK-61" value="" style="endArrow=none;html=1;rounded=0;exitX=0.5;exitY=1;exitDx=0;exitDy=0;entryX=0.5;entryY=0;entryDx=0;entryDy=0;" edge="1" parent="1" source="HxZMuwQtgUmfp3cJDNCK-54" target="HxZMuwQtgUmfp3cJDNCK-56">
          <mxGeometry width="50" height="50" relative="1" as="geometry">
            <mxPoint x="800" y="465" as="sourcePoint" />
            <mxPoint x="850" y="415" as="targetPoint" />
          </mxGeometry>
        </mxCell>
        <mxCell id="HxZMuwQtgUmfp3cJDNCK-64" value="A" style="ellipse;whiteSpace=wrap;html=1;aspect=fixed;" vertex="1" parent="1">
          <mxGeometry x="670" y="300" width="50" height="50" as="geometry" />
        </mxCell>
        <mxCell id="HxZMuwQtgUmfp3cJDNCK-65" value="D" style="ellipse;whiteSpace=wrap;html=1;aspect=fixed;" vertex="1" parent="1">
          <mxGeometry x="670" y="410" width="50" height="50" as="geometry" />
        </mxCell>
        <mxCell id="HxZMuwQtgUmfp3cJDNCK-66" value="I" style="ellipse;whiteSpace=wrap;html=1;aspect=fixed;" vertex="1" parent="1">
          <mxGeometry x="670" y="520" width="50" height="50" as="geometry" />
        </mxCell>
        <mxCell id="HxZMuwQtgUmfp3cJDNCK-68" value="U" style="ellipse;whiteSpace=wrap;html=1;aspect=fixed;" vertex="1" parent="1">
          <mxGeometry x="670" y="620" width="50" height="50" as="geometry" />
        </mxCell>
        <mxCell id="HxZMuwQtgUmfp3cJDNCK-69" value="S" style="ellipse;whiteSpace=wrap;html=1;aspect=fixed;" vertex="1" parent="1">
          <mxGeometry x="670" y="730" width="50" height="50" as="geometry" />
        </mxCell>
        <mxCell id="HxZMuwQtgUmfp3cJDNCK-70" value="" style="endArrow=none;html=1;rounded=0;entryX=0.5;entryY=1;entryDx=0;entryDy=0;exitX=0.5;exitY=0;exitDx=0;exitDy=0;" edge="1" parent="1" source="HxZMuwQtgUmfp3cJDNCK-65" target="HxZMuwQtgUmfp3cJDNCK-64">
          <mxGeometry width="50" height="50" relative="1" as="geometry">
            <mxPoint x="520" y="450" as="sourcePoint" />
            <mxPoint x="570" y="400" as="targetPoint" />
          </mxGeometry>
        </mxCell>
        <mxCell id="HxZMuwQtgUmfp3cJDNCK-72" value="" style="endArrow=none;html=1;rounded=0;entryX=0.5;entryY=1;entryDx=0;entryDy=0;exitX=0.5;exitY=0;exitDx=0;exitDy=0;" edge="1" parent="1" source="HxZMuwQtgUmfp3cJDNCK-68" target="HxZMuwQtgUmfp3cJDNCK-66">
          <mxGeometry width="50" height="50" relative="1" as="geometry">
            <mxPoint x="1080" y="290" as="sourcePoint" />
            <mxPoint x="1130" y="240" as="targetPoint" />
          </mxGeometry>
        </mxCell>
        <mxCell id="HxZMuwQtgUmfp3cJDNCK-73" value="" style="endArrow=none;html=1;rounded=0;entryX=0.5;entryY=1;entryDx=0;entryDy=0;exitX=0.5;exitY=0;exitDx=0;exitDy=0;" edge="1" parent="1" source="HxZMuwQtgUmfp3cJDNCK-69" target="HxZMuwQtgUmfp3cJDNCK-68">
          <mxGeometry width="50" height="50" relative="1" as="geometry">
            <mxPoint x="1080" y="610" as="sourcePoint" />
            <mxPoint x="1130" y="560" as="targetPoint" />
          </mxGeometry>
        </mxCell>
        <mxCell id="HxZMuwQtgUmfp3cJDNCK-74" value="" style="endArrow=none;html=1;rounded=0;entryX=0.5;entryY=1;entryDx=0;entryDy=0;exitX=0.5;exitY=0;exitDx=0;exitDy=0;" edge="1" parent="1" source="HxZMuwQtgUmfp3cJDNCK-64" target="HxZMuwQtgUmfp3cJDNCK-52">
          <mxGeometry width="50" height="50" relative="1" as="geometry">
            <mxPoint x="850" y="640" as="sourcePoint" />
            <mxPoint x="580" y="220" as="targetPoint" />
          </mxGeometry>
        </mxCell>
        <mxCell id="HxZMuwQtgUmfp3cJDNCK-84" value="" style="endArrow=none;html=1;rounded=0;entryX=0.5;entryY=1;entryDx=0;entryDy=0;" edge="1" parent="1" source="HxZMuwQtgUmfp3cJDNCK-52" target="HxZMuwQtgUmfp3cJDNCK-9">
          <mxGeometry width="50" height="50" relative="1" as="geometry">
            <mxPoint x="410" y="360" as="sourcePoint" />
            <mxPoint x="460" y="310" as="targetPoint" />
          </mxGeometry>
        </mxCell>
        <mxCell id="HxZMuwQtgUmfp3cJDNCK-85" value="" style="endArrow=none;html=1;rounded=0;exitX=0.5;exitY=0;exitDx=0;exitDy=0;entryX=0.5;entryY=1;entryDx=0;entryDy=0;" edge="1" parent="1" source="HxZMuwQtgUmfp3cJDNCK-66" target="HxZMuwQtgUmfp3cJDNCK-65">
          <mxGeometry width="50" height="50" relative="1" as="geometry">
            <mxPoint x="630" y="550" as="sourcePoint" />
            <mxPoint x="780" y="450" as="targetPoint" />
          </mxGeometry>
        </mxCell>
        <mxCell id="HxZMuwQtgUmfp3cJDNCK-86" value="$" style="ellipse;whiteSpace=wrap;html=1;aspect=fixed;" vertex="1" parent="1">
          <mxGeometry x="670" y="840" width="50" height="50" as="geometry" />
        </mxCell>
        <mxCell id="HxZMuwQtgUmfp3cJDNCK-87" value="" style="endArrow=none;html=1;rounded=0;entryX=0.5;entryY=1;entryDx=0;entryDy=0;exitX=0.5;exitY=0;exitDx=0;exitDy=0;" edge="1" parent="1" source="HxZMuwQtgUmfp3cJDNCK-86" target="HxZMuwQtgUmfp3cJDNCK-69">
          <mxGeometry width="50" height="50" relative="1" as="geometry">
            <mxPoint x="705" y="740" as="sourcePoint" />
            <mxPoint x="705" y="680" as="targetPoint" />
          </mxGeometry>
        </mxCell>
        <mxCell id="HxZMuwQtgUmfp3cJDNCK-91" value="L" style="ellipse;whiteSpace=wrap;html=1;aspect=fixed;" vertex="1" parent="1">
          <mxGeometry x="520" y="515" width="50" height="50" as="geometry" />
        </mxCell>
        <mxCell id="HxZMuwQtgUmfp3cJDNCK-92" value="F" style="ellipse;whiteSpace=wrap;html=1;aspect=fixed;" vertex="1" parent="1">
          <mxGeometry x="520" y="415" width="50" height="50" as="geometry" />
        </mxCell>
        <mxCell id="HxZMuwQtgUmfp3cJDNCK-93" value="E" style="ellipse;whiteSpace=wrap;html=1;aspect=fixed;" vertex="1" parent="1">
          <mxGeometry x="520" y="625" width="50" height="50" as="geometry" />
        </mxCell>
        <mxCell id="HxZMuwQtgUmfp3cJDNCK-94" value="" style="endArrow=none;html=1;rounded=0;entryX=0.5;entryY=1;entryDx=0;entryDy=0;exitX=0.5;exitY=0;exitDx=0;exitDy=0;" edge="1" parent="1" source="HxZMuwQtgUmfp3cJDNCK-91" target="HxZMuwQtgUmfp3cJDNCK-92">
          <mxGeometry width="50" height="50" relative="1" as="geometry">
            <mxPoint x="910" y="355" as="sourcePoint" />
            <mxPoint x="960" y="305" as="targetPoint" />
          </mxGeometry>
        </mxCell>
        <mxCell id="HxZMuwQtgUmfp3cJDNCK-95" value="" style="endArrow=none;html=1;rounded=0;entryX=0.5;entryY=1;entryDx=0;entryDy=0;exitX=0.5;exitY=0;exitDx=0;exitDy=0;" edge="1" parent="1" source="HxZMuwQtgUmfp3cJDNCK-93" target="HxZMuwQtgUmfp3cJDNCK-91">
          <mxGeometry width="50" height="50" relative="1" as="geometry">
            <mxPoint x="910" y="355" as="sourcePoint" />
            <mxPoint x="960" y="305" as="targetPoint" />
          </mxGeometry>
        </mxCell>
        <mxCell id="HxZMuwQtgUmfp3cJDNCK-102" value="$" style="ellipse;whiteSpace=wrap;html=1;aspect=fixed;" vertex="1" parent="1">
          <mxGeometry x="70" y="960" width="50" height="50" as="geometry" />
        </mxCell>
        <mxCell id="HxZMuwQtgUmfp3cJDNCK-103" value="" style="endArrow=none;html=1;rounded=0;entryX=0.5;entryY=1;entryDx=0;entryDy=0;exitX=0.5;exitY=0;exitDx=0;exitDy=0;" edge="1" parent="1" source="HxZMuwQtgUmfp3cJDNCK-102" target="HxZMuwQtgUmfp3cJDNCK-16">
          <mxGeometry width="50" height="50" relative="1" as="geometry">
            <mxPoint x="105" y="860" as="sourcePoint" />
            <mxPoint x="105" y="790.0000000000002" as="targetPoint" />
          </mxGeometry>
        </mxCell>
        <mxCell id="HxZMuwQtgUmfp3cJDNCK-104" value="$" style="ellipse;whiteSpace=wrap;html=1;aspect=fixed;" vertex="1" parent="1">
          <mxGeometry y="520" width="50" height="50" as="geometry" />
        </mxCell>
        <mxCell id="HxZMuwQtgUmfp3cJDNCK-108" value="" style="endArrow=none;html=1;rounded=0;exitX=0.5;exitY=0;exitDx=0;exitDy=0;entryX=0.5;entryY=1;entryDx=0;entryDy=0;" edge="1" parent="1" source="HxZMuwQtgUmfp3cJDNCK-104" target="HxZMuwQtgUmfp3cJDNCK-12">
          <mxGeometry width="50" height="50" relative="1" as="geometry">
            <mxPoint x="380" y="450" as="sourcePoint" />
            <mxPoint x="430" y="400" as="targetPoint" />
          </mxGeometry>
        </mxCell>
        <mxCell id="HxZMuwQtgUmfp3cJDNCK-109" value="" style="endArrow=none;html=1;rounded=0;entryX=0.5;entryY=1;entryDx=0;entryDy=0;exitX=0.5;exitY=0;exitDx=0;exitDy=0;" edge="1" parent="1" source="HxZMuwQtgUmfp3cJDNCK-12" target="HxZMuwQtgUmfp3cJDNCK-37">
          <mxGeometry width="50" height="50" relative="1" as="geometry">
            <mxPoint x="285" y="420" as="sourcePoint" />
            <mxPoint x="205" y="360" as="targetPoint" />
          </mxGeometry>
        </mxCell>
        <mxCell id="HxZMuwQtgUmfp3cJDNCK-110" value="" style="endArrow=none;html=1;rounded=0;entryX=0.5;entryY=1;entryDx=0;entryDy=0;exitX=0.5;exitY=0;exitDx=0;exitDy=0;" edge="1" parent="1" source="HxZMuwQtgUmfp3cJDNCK-24" target="HxZMuwQtgUmfp3cJDNCK-48">
          <mxGeometry width="50" height="50" relative="1" as="geometry">
            <mxPoint x="410" y="1010" as="sourcePoint" />
            <mxPoint x="410" y="950" as="targetPoint" />
          </mxGeometry>
        </mxCell>
        <mxCell id="HxZMuwQtgUmfp3cJDNCK-111" value="" style="endArrow=none;html=1;rounded=0;entryX=0.5;entryY=1;entryDx=0;entryDy=0;exitX=0.5;exitY=0;exitDx=0;exitDy=0;" edge="1" parent="1" source="HxZMuwQtgUmfp3cJDNCK-92" target="HxZMuwQtgUmfp3cJDNCK-53">
          <mxGeometry width="50" height="50" relative="1" as="geometry">
            <mxPoint x="380" y="630" as="sourcePoint" />
            <mxPoint x="430" y="580" as="targetPoint" />
          </mxGeometry>
        </mxCell>
        <mxCell id="HxZMuwQtgUmfp3cJDNCK-112" value="X" style="ellipse;whiteSpace=wrap;html=1;aspect=fixed;" vertex="1" parent="1">
          <mxGeometry x="520" y="725" width="50" height="50" as="geometry" />
        </mxCell>
        <mxCell id="HxZMuwQtgUmfp3cJDNCK-113" value="$" style="ellipse;whiteSpace=wrap;html=1;aspect=fixed;" vertex="1" parent="1">
          <mxGeometry x="520" y="835" width="50" height="50" as="geometry" />
        </mxCell>
        <mxCell id="HxZMuwQtgUmfp3cJDNCK-114" value="" style="endArrow=none;html=1;rounded=0;entryX=0.5;entryY=1;entryDx=0;entryDy=0;exitX=0.5;exitY=0;exitDx=0;exitDy=0;" edge="1" parent="1" source="HxZMuwQtgUmfp3cJDNCK-113" target="HxZMuwQtgUmfp3cJDNCK-112">
          <mxGeometry width="50" height="50" relative="1" as="geometry">
            <mxPoint x="910" y="565" as="sourcePoint" />
            <mxPoint x="960" y="515" as="targetPoint" />
          </mxGeometry>
        </mxCell>
        <mxCell id="HxZMuwQtgUmfp3cJDNCK-115" value="" style="endArrow=none;html=1;rounded=0;entryX=0.5;entryY=1;entryDx=0;entryDy=0;exitX=0.5;exitY=0;exitDx=0;exitDy=0;" edge="1" parent="1" source="HxZMuwQtgUmfp3cJDNCK-112" target="HxZMuwQtgUmfp3cJDNCK-93">
          <mxGeometry width="50" height="50" relative="1" as="geometry">
            <mxPoint x="380" y="630" as="sourcePoint" />
            <mxPoint x="430" y="580" as="targetPoint" />
          </mxGeometry>
        </mxCell>
      </root>
    </mxGraphModel>
  </diagram>
</mxfile>
